<svg width="100" height="100" viewBox="0 0 100 100" fill="none" xmlns="http://www.w3.org/2000/svg">
<path d="M30.5167 99.3573H27.6768C24.8545 99.3573 22.4205 99.1103 20.3744 98.5988C18.3106 98.1049 16.5115 96.8526 14.9769 94.8594C13.4246 92.8662 12.4369 90.4849 12.0488 87.7333C11.6608 84.964 11.4138 80.3955 11.3433 73.9749C11.3433 69.4947 11.1669 65.9492 10.8141 63.3387C10.4437 60.7105 9.49115 58.5056 7.93895 56.7241C6.38665 54.9249 3.95255 53.9901 0.654053 53.9372V45.5058C3.95255 45.4352 6.38665 44.518 7.93895 42.7365C9.49115 40.9726 10.4437 38.7677 10.8141 36.1572C11.1669 33.529 11.3433 29.9836 11.3433 25.5033C11.4138 19.1357 11.6431 14.5848 12.0312 11.8332C12.4016 9.09909 13.3541 6.71789 14.8887 4.68939C16.4233 2.64329 18.2224 1.3733 20.2862 0.861797C22.3499 0.332597 24.8194 0.0856934 27.6768 0.0856934H30.5167V8.14659H28.9292C25.3662 8.14659 23.0026 8.78159 21.8208 10.0869C20.6213 11.3745 20.0392 14.285 20.0392 18.8358C20.0392 26.3852 19.8628 31.8533 19.5453 35.2223C19.2102 38.5913 18.293 41.4312 16.8113 43.7243C15.312 46.0173 12.7896 48.0281 9.22655 49.7391C12.7544 51.1502 15.4178 53.4433 17.2699 56.6183C19.1044 59.7933 20.0392 65.279 20.0392 73.093C20.0392 80.3073 20.1803 84.717 20.4978 86.3222C20.8153 87.9449 21.3974 89.1797 22.2794 90.0263C23.1613 90.873 25.3662 91.2963 28.9292 91.2963H30.5167V99.3573Z" fill="#4E93E6"/>
<path d="M99.3082 53.9372C95.9921 53.9901 93.5756 54.9249 92.041 56.6888C90.5064 58.4704 89.5716 60.6399 89.2011 63.1976C88.8484 65.7729 88.6367 69.3712 88.6014 73.9749C88.5485 80.3249 88.3192 84.8581 87.9311 87.5922C87.5607 90.3262 86.6082 92.7251 85.0737 94.7535C83.5391 96.782 81.7399 98.0697 79.6762 98.5812C77.5948 99.0927 75.143 99.3573 72.2855 99.3573H69.4456V91.2963H71.0331C74.5962 91.2963 76.9598 90.6437 78.1416 89.356C79.341 88.0684 79.9231 85.158 79.9231 80.6424C79.9231 73.0754 80.0995 67.5897 80.417 64.2206C80.7521 60.834 81.6517 58.0118 83.151 55.7187C84.6503 53.4256 87.1727 51.4324 90.7357 49.7391C87.208 48.2927 84.5445 45.982 82.6924 42.8247C80.858 39.6497 79.9231 34.1463 79.9231 26.3323C79.9231 19.1357 79.782 14.7259 79.4645 13.1384C79.147 11.5333 78.5649 10.2986 77.683 9.4343C76.801 8.57 74.5962 8.14659 71.0331 8.14659H69.4456V0.0856934H72.2855C75.143 0.0856934 77.6124 0.350195 79.6938 0.879395C81.7752 1.42619 83.6096 2.73149 85.1795 4.81289C86.7493 6.89429 87.7018 9.2755 88.0723 11.9743C88.425 14.6554 88.6014 19.1709 88.6014 25.5033C88.6014 29.9483 88.7955 33.4761 89.1482 36.1043C89.5186 38.7148 90.4711 40.9197 92.0234 42.7188C93.5756 44.5004 95.9921 45.4352 99.3082 45.5058V53.9372V53.9372Z" fill="#4E93E6"/>
<path d="M50.184 20.8289C51.9655 20.8289 53.5001 21.4639 54.7701 22.7516C56.0224 24.0216 56.6574 25.5738 56.6574 27.3553C56.6574 29.1898 56.0224 30.7595 54.7701 32.0295C53.5001 33.3172 51.9655 33.9523 50.184 33.9523C48.3848 33.9523 46.8326 33.3173 45.5626 32.0649C44.2749 30.7949 43.6399 29.2603 43.6399 27.4612C43.6399 25.662 44.3102 24.1098 45.6331 22.8045C46.9737 21.4816 48.473 20.8289 50.184 20.8289V20.8289ZM44.6277 90.573L41.8408 87.1512C48.8963 81.4009 52.4241 76.5854 52.4241 72.7224C52.4241 72.2638 52.3888 71.7171 52.3183 71.0645C51.7362 71.3114 51.1541 71.4878 50.6073 71.6289C50.0428 71.77 49.5313 71.8406 49.0374 71.8406C47.3794 71.8406 46.0388 71.3114 45.0334 70.2355C44.028 69.1595 43.5341 67.8012 43.5341 66.1431C43.5341 64.5204 44.1338 63.1093 45.3509 61.9098C46.5503 60.6927 48.0144 60.0931 49.7077 60.0931C52.0537 60.0931 54.0645 61.0279 55.7402 62.9152C57.4159 64.7849 58.2449 67.2191 58.2449 70.1824C58.2449 72.1227 57.8569 74.1513 57.0631 76.268C56.2694 78.3846 55.1228 80.3601 53.6059 82.1592C52.089 83.9761 49.0903 86.7806 44.6277 90.573V90.573Z" fill="#4E93E6"/>
</svg>
