<svg width="124" height="110" viewBox="0 0 124 110" fill="none" xmlns="http://www.w3.org/2000/svg">
<path fill-rule="evenodd" clip-rule="evenodd" d="M123.199 55.2131C123.199 47.1064 113.047 39.4238 97.4824 34.6596C101.074 18.7955 99.4778 6.17402 92.4437 2.13322C90.8224 1.18532 88.9267 0.736426 86.8563 0.736426V6.29882C88.0037 6.29882 88.9267 6.52332 89.7 6.94732C93.0923 8.89292 94.564 16.3011 93.4166 25.8296C93.1422 28.1743 92.6931 30.6437 92.1444 33.163C87.2555 31.9657 81.9175 31.0428 76.3052 30.4441C72.9378 25.8295 69.4457 21.639 65.9287 17.9723C74.0603 10.4144 81.693 6.27382 86.8813 6.27382V0.711426C80.0218 0.711426 71.0421 5.60032 61.9627 14.0812C52.8832 5.65032 43.9035 0.811221 37.0441 0.811221V6.37362C42.2074 6.37362 49.8651 10.4893 57.9967 17.9973C54.5046 21.664 51.0125 25.8296 47.695 30.4441C42.0578 31.0427 36.7198 31.9657 31.8309 33.1879C31.2572 30.6935 30.8332 28.274 30.5338 25.9543C29.3615 16.4259 30.8082 9.01762 34.1756 7.04712C34.9239 6.59812 35.8967 6.39862 37.0441 6.39862V0.836221C34.9488 0.836221 33.0531 1.28522 31.4069 2.23302C24.3978 6.27392 22.8263 18.8704 26.4431 34.6846C10.9282 39.4738 0.82605 47.1314 0.82605 55.2132C0.82605 63.3199 10.978 71.0025 26.5428 75.7667C22.9509 91.6308 24.5473 104.252 31.5814 108.293C33.2027 109.241 35.0984 109.69 37.1937 109.69C44.0532 109.69 53.033 104.801 62.1124 96.3201C71.1919 104.751 80.1716 109.59 87.031 109.59C89.1263 109.59 91.0219 109.141 92.6681 108.193C99.6772 104.152 101.249 91.5559 97.6319 75.7417C113.097 70.9774 123.199 63.2948 123.199 55.2131V55.2131ZM90.7226 38.5757C89.7997 41.7934 88.6522 45.1109 87.3551 48.4284C86.3324 46.4329 85.2599 44.4374 84.0876 42.4419C82.9402 40.4464 81.7179 38.5008 80.4956 36.6051C84.0376 37.129 87.455 37.7775 90.7226 38.5757ZM79.2984 65.1406C77.3528 68.508 75.3573 71.7008 73.287 74.669C69.5704 74.9933 65.8039 75.1679 62.0125 75.1679C58.246 75.1679 54.4795 74.9933 50.7879 74.694C48.7176 71.7257 46.6972 68.5579 44.7516 65.2154C42.8559 61.9478 41.1348 58.6303 39.5633 55.2879C41.1098 51.9455 42.8559 48.603 44.7266 45.3354C46.6722 41.968 48.6677 38.7752 50.738 35.807C54.4546 35.4827 58.2211 35.3081 62.0125 35.3081C65.779 35.3081 69.5455 35.4827 73.2371 35.782C75.3074 38.7503 77.3278 41.9181 79.2734 45.2606C81.1691 48.5282 82.8903 51.8457 84.4618 55.1881C82.8903 58.5305 81.1691 61.873 79.2984 65.1406V65.1406ZM87.3551 61.8979C88.7021 65.2403 89.8496 68.5828 90.7974 71.8254C87.5298 72.6236 84.0875 73.2971 80.5205 73.8209C81.7427 71.9002 82.9651 69.9297 84.1125 67.9093C85.26 65.9138 86.3325 63.8934 87.3551 61.8979ZM62.0624 88.5127C59.7426 86.1181 57.4229 83.4492 55.1281 80.5308C57.373 80.6306 59.6678 80.7054 61.9876 80.7054C64.3323 80.7054 66.6521 80.6555 68.922 80.5308C66.677 83.4492 64.3572 86.1181 62.0624 88.5127ZM43.5043 73.821C39.9623 73.2972 36.5451 72.6487 33.2775 71.8505C34.2004 68.6328 35.3477 65.3153 36.6448 61.9978C37.6675 63.9933 38.7402 65.9888 39.9125 67.9843C41.0849 69.9796 42.2821 71.9252 43.5043 73.821ZM61.9376 21.9134C64.2574 24.308 66.5772 26.9769 68.872 29.8953C66.6271 29.7955 64.3322 29.7207 62.0124 29.7207C59.6677 29.7207 57.348 29.7706 55.0781 29.8953C57.3231 26.9769 59.6428 24.308 61.9376 21.9134ZM43.4795 36.6051C42.2573 38.5258 41.0349 40.4963 39.8875 42.5167C38.7401 44.5122 37.6675 46.5077 36.6448 48.5032C35.2978 45.1608 34.1504 41.8183 33.2026 38.5757C36.4702 37.8024 39.9126 37.129 43.4795 36.6051V36.6051ZM20.9055 67.8345C12.0755 64.068 6.36345 59.1292 6.36345 55.213C6.36345 51.2969 12.0755 46.3331 20.9055 42.5915C23.0506 41.6686 25.3954 40.8454 27.815 40.0722C29.2368 44.9611 31.1076 50.0496 33.4273 55.2628C31.1325 60.4511 29.2867 65.5146 27.8898 70.3786C25.4203 69.6055 23.0755 68.7574 20.9055 67.8345ZM34.3251 103.479C30.9328 101.533 29.4611 94.1251 30.6085 84.5966C30.8829 82.2519 31.3319 79.7825 31.8806 77.2632C36.7695 78.4605 42.1076 79.3834 47.7199 79.9821C51.0873 84.5967 54.5793 88.7872 58.0963 92.4539C49.9647 100.012 42.332 104.152 37.1437 104.152C36.0213 104.127 35.0734 103.903 34.3251 103.479ZM93.4913 84.4719C94.6636 94.0003 93.2169 101.409 89.8495 103.379C89.1012 103.828 88.1284 104.028 86.981 104.028C81.8177 104.028 74.16 99.9119 66.0284 92.4039C69.5205 88.7372 73.0126 84.5716 76.3301 79.9571C81.9673 79.3585 87.3054 78.4355 92.1943 77.2133C92.768 79.7326 93.2169 82.1521 93.4913 84.4719V84.4719ZM103.095 67.8345C100.949 68.7574 98.6047 69.5806 96.1851 70.3538C94.7633 65.4649 92.8925 60.3764 90.5728 55.1632C92.8676 49.9749 94.7134 44.9114 96.1103 40.0474C98.5797 40.8207 100.924 41.6687 103.119 42.5916C111.949 46.3581 117.662 51.2969 117.662 55.2131C117.637 59.1292 111.925 64.093 103.095 67.8345Z" fill="#4E93E6"/>
<path d="M61.9876 66.6124C68.2832 66.6124 73.3868 61.5088 73.3868 55.2132C73.3868 48.9176 68.2832 43.814 61.9876 43.814C55.692 43.814 50.5884 48.9176 50.5884 55.2132C50.5884 61.5088 55.692 66.6124 61.9876 66.6124Z" fill="#4E93E6"/>
</svg>
